#Comment line ignore any data following # character 
#Hierarchical Translation and Rotation (.htr) file 
[Header]	
#Header keywords are followed by a single value 
FileType HTR		#Single word string
DataType HTRS		#Translation followed by rotation and scale data
FileVersion 1		#integer
NumSegments 84		#integer
NumFrames 2		#integer
DataFrameRate 30		#integer, data frame rate in this file
EulerRotationOrder ZYX
CalibrationUnits mm
RotationUnits Degrees
GlobalAxisofGravity Y
BoneLengthAxis Y
ScaleFactor 1.00
[SegmentNames&Hierarchy]
#CHILD	PARENT
MASTER GLOBAL
root MASTER
chest root
L_mid_tent01 root
R_mid_tent01 root
spine01 root
Bip01_Neck chest
L_humerus chest
R_humerus chest
weapon_bone chest
Bip01_Head Bip01_Neck
eye_left_bone Bip01_Head
eye_right_bone Bip01_Head
L_forearm L_humerus
L_front_hand L_forearm
L_weapon_bone L_forearm
L_front_hand01_01 L_front_hand
L_front_hand02_01 L_front_hand
L_front_hand03_01 L_front_hand
L_front_hand01_02 L_front_hand01_01
L_front_hand02_02 L_front_hand02_01
L_front_hand03_02 L_front_hand03_01
R_forearm R_humerus
R_front_hand R_forearm
R_weapon_bone R_forearm
R_front_hand01_01 R_front_hand
R_front_hand02_01 R_front_hand
R_front_hand03_01 R_front_hand
R_front_hand01_02 R_front_hand01_01
R_front_hand02_02 R_front_hand02_01
R_front_hand03_02 R_front_hand03_01
null_rope01_connect L_mid_tent01
Rope1_Seg01 null_rope01_connect
Rope1_Seg02 Rope1_Seg01
Rope1_Seg03 Rope1_Seg02
Rope1_Seg04 Rope1_Seg03
Rope1_Seg05 Rope1_Seg04
Rope1_Seg06 Rope1_Seg05
Rope1_Seg07 Rope1_Seg06
Rope1_Seg09 Rope1_Seg07
L_mid_hand01 Rope1_Seg09
L_mid_hand02 Rope1_Seg09
L_mid_hand03 Rope1_Seg09
null_rope02_connect R_mid_tent01
Rope2_Seg01 null_rope02_connect
Rope2_Seg02 Rope2_Seg01
Rope2_Seg03 Rope2_Seg02
Rope2_Seg04 Rope2_Seg03
Rope2_Seg05 Rope2_Seg04
Rope2_Seg06 Rope2_Seg05
Rope2_Seg07 Rope2_Seg06
Rope2_Seg09 Rope2_Seg07
R_mid_hand01 Rope2_Seg09
R_mid_hand02 Rope2_Seg09
R_mid_hand03 Rope2_Seg09
spine02 spine01
spine03 spine02
pelvis spine03
null_rope03_connect pelvis
null_rope04_connect pelvis
Rope3_Seg01 null_rope03_connect
Rope3_Seg02 Rope3_Seg01
Rope3_Seg03 Rope3_Seg02
Rope3_Seg04 Rope3_Seg03
Rope3_Seg05 Rope3_Seg04
Rope3_Seg06 Rope3_Seg05
Rope3_Seg07 Rope3_Seg06
Rope3_Seg08 Rope3_Seg07
Rope3_Seg09 Rope3_Seg08
R_rear_hand01 Rope3_Seg09
R_rear_hand02 Rope3_Seg09
R_rear_hand03 Rope3_Seg09
Rope4_Seg01 null_rope04_connect
Rope4_Seg02 Rope4_Seg01
Rope4_Seg03 Rope4_Seg02
Rope4_Seg04 Rope4_Seg03
Rope4_Seg05 Rope4_Seg04
Rope4_Seg06 Rope4_Seg05
Rope4_Seg07 Rope4_Seg06
Rope4_Seg08 Rope4_Seg07
Rope4_Seg09 Rope4_Seg08
L_rear_hand01 Rope4_Seg09
L_rear_hand02 Rope4_Seg09
L_rear_hand03 Rope4_Seg09
[BasePosition]
#SegmentName Tx, Ty, Tz, Rx, Ry, Rz, BoneLength
MASTER 0.000000 0.000000 0.000000 -90.000000 0.000000 0.000000 10.000000 
root 0.000000 0.000000 0.000000 0.000000 0.000000 0.000000 10.000000 
chest 0.000000 0.000000 0.000000 0.000000 0.000000 0.000000 10.000000 
L_mid_tent01 0.000000 0.000000 0.000000 0.000000 0.000000 0.000000 10.000000 
R_mid_tent01 0.000000 0.000000 0.000000 0.000000 0.000000 0.000000 10.000000 
spine01 0.000000 0.000000 0.000000 0.000000 0.000000 0.000000 10.000000 
Bip01_Neck 0.000000 0.000000 0.000000 0.000000 0.000000 0.000000 10.000000 
L_humerus 0.000000 0.000000 0.000000 0.000000 0.000000 0.000000 10.000000 
R_humerus 0.000000 0.000000 0.000000 0.000000 0.000000 0.000000 10.000000 
weapon_bone 0.000000 0.000000 0.000000 0.000000 0.000000 0.000000 10.000000 
Bip01_Head 0.000000 0.000000 0.000000 0.000000 0.000000 0.000000 10.000000 
eye_left_bone 0.000000 0.000000 0.000000 0.000000 0.000000 0.000000 10.000000 
eye_right_bone 0.000000 0.000000 0.000000 0.000000 0.000000 0.000000 10.000000 
L_forearm 0.000000 0.000000 0.000000 0.000000 0.000000 0.000000 10.000000 
L_front_hand 0.000000 0.000000 0.000000 0.000000 0.000000 0.000000 10.000000 
L_weapon_bone 0.000000 0.000000 0.000000 0.000000 0.000000 0.000000 10.000000 
L_front_hand01_01 0.000000 0.000000 0.000000 0.000000 0.000000 0.000000 10.000000 
L_front_hand02_01 0.000000 0.000000 0.000000 0.000000 0.000000 0.000000 10.000000 
L_front_hand03_01 0.000000 0.000000 0.000000 0.000000 0.000000 0.000000 10.000000 
L_front_hand01_02 0.000000 0.000000 0.000000 0.000000 0.000000 0.000000 10.000000 
L_front_hand02_02 0.000000 0.000000 0.000000 0.000000 0.000000 0.000000 10.000000 
L_front_hand03_02 0.000000 0.000000 0.000000 0.000000 0.000000 0.000000 10.000000 
R_forearm 0.000000 0.000000 0.000000 0.000000 0.000000 0.000000 10.000000 
R_front_hand 0.000000 0.000000 0.000000 0.000000 0.000000 0.000000 10.000000 
R_weapon_bone 0.000000 0.000000 0.000000 0.000000 0.000000 0.000000 10.000000 
R_front_hand01_01 0.000000 0.000000 0.000000 0.000000 0.000000 0.000000 10.000000 
R_front_hand02_01 0.000000 0.000000 0.000000 0.000000 0.000000 0.000000 10.000000 
R_front_hand03_01 0.000000 0.000000 0.000000 0.000000 0.000000 0.000000 10.000000 
R_front_hand01_02 0.000000 0.000000 0.000000 0.000000 0.000000 0.000000 10.000000 
R_front_hand02_02 0.000000 0.000000 0.000000 0.000000 0.000000 0.000000 10.000000 
R_front_hand03_02 0.000000 0.000000 0.000000 0.000000 0.000000 0.000000 10.000000 
null_rope01_connect 0.000000 0.000000 0.000000 0.000000 0.000000 0.000000 10.000000 
Rope1_Seg01 0.000000 0.000000 0.000000 0.000000 0.000000 0.000000 10.000000 
Rope1_Seg02 0.000000 0.000000 0.000000 0.000000 0.000000 0.000000 10.000000 
Rope1_Seg03 0.000000 0.000000 0.000000 0.000000 0.000000 0.000000 10.000000 
Rope1_Seg04 0.000000 0.000000 0.000000 0.000000 0.000000 0.000000 10.000000 
Rope1_Seg05 0.000000 0.000000 0.000000 0.000000 0.000000 0.000000 10.000000 
Rope1_Seg06 0.000000 0.000000 0.000000 0.000000 0.000000 0.000000 10.000000 
Rope1_Seg07 0.000000 0.000000 0.000000 0.000000 0.000000 0.000000 10.000000 
Rope1_Seg09 0.000000 0.000000 0.000000 0.000000 0.000000 0.000000 10.000000 
L_mid_hand01 0.000000 0.000000 0.000000 0.000000 0.000000 0.000000 10.000000 
L_mid_hand02 0.000000 0.000000 0.000000 0.000000 0.000000 0.000000 10.000000 
L_mid_hand03 0.000000 0.000000 0.000000 0.000000 0.000000 0.000000 10.000000 
null_rope02_connect 0.000000 0.000000 0.000000 0.000000 0.000000 0.000000 10.000000 
Rope2_Seg01 0.000000 0.000000 0.000000 0.000000 0.000000 0.000000 10.000000 
Rope2_Seg02 0.000000 0.000000 0.000000 0.000000 0.000000 0.000000 10.000000 
Rope2_Seg03 0.000000 0.000000 0.000000 0.000000 0.000000 0.000000 10.000000 
Rope2_Seg04 0.000000 0.000000 0.000000 0.000000 0.000000 0.000000 10.000000 
Rope2_Seg05 0.000000 0.000000 0.000000 0.000000 0.000000 0.000000 10.000000 
Rope2_Seg06 0.000000 0.000000 0.000000 0.000000 0.000000 0.000000 10.000000 
Rope2_Seg07 0.000000 0.000000 0.000000 0.000000 0.000000 0.000000 10.000000 
Rope2_Seg09 0.000000 0.000000 0.000000 0.000000 0.000000 0.000000 10.000000 
R_mid_hand01 0.000000 0.000000 0.000000 0.000000 0.000000 0.000000 10.000000 
R_mid_hand02 0.000000 0.000000 0.000000 0.000000 0.000000 0.000000 10.000000 
R_mid_hand03 0.000000 0.000000 0.000000 0.000000 0.000000 0.000000 10.000000 
spine02 0.000000 0.000000 0.000000 0.000000 0.000000 0.000000 10.000000 
spine03 0.000000 0.000000 0.000000 0.000000 0.000000 0.000000 10.000000 
pelvis 0.000000 0.000000 0.000000 0.000000 0.000000 0.000000 10.000000 
null_rope03_connect 0.000000 0.000000 0.000000 0.000000 0.000000 0.000000 10.000000 
null_rope04_connect 0.000000 0.000000 0.000000 0.000000 0.000000 0.000000 10.000000 
Rope3_Seg01 0.000000 0.000000 0.000000 0.000000 0.000000 0.000000 10.000000 
Rope3_Seg02 0.000000 0.000000 0.000000 0.000000 0.000000 0.000000 10.000000 
Rope3_Seg03 0.000000 0.000000 0.000000 0.000000 0.000000 0.000000 10.000000 
Rope3_Seg04 0.000000 0.000000 0.000000 0.000000 0.000000 0.000000 10.000000 
Rope3_Seg05 0.000000 0.000000 0.000000 0.000000 0.000000 0.000000 10.000000 
Rope3_Seg06 0.000000 0.000000 0.000000 0.000000 0.000000 0.000000 10.000000 
Rope3_Seg07 0.000000 0.000000 0.000000 0.000000 0.000000 0.000000 10.000000 
Rope3_Seg08 0.000000 0.000000 0.000000 0.000000 0.000000 0.000000 10.000000 
Rope3_Seg09 0.000000 0.000000 0.000000 0.000000 0.000000 0.000000 10.000000 
R_rear_hand01 0.000000 0.000000 0.000000 0.000000 0.000000 0.000000 10.000000 
R_rear_hand02 0.000000 0.000000 0.000000 0.000000 0.000000 0.000000 10.000000 
R_rear_hand03 0.000000 0.000000 0.000000 0.000000 0.000000 0.000000 10.000000 
Rope4_Seg01 0.000000 0.000000 0.000000 0.000000 0.000000 0.000000 10.000000 
Rope4_Seg02 0.000000 0.000000 0.000000 0.000000 0.000000 0.000000 10.000000 
Rope4_Seg03 0.000000 0.000000 0.000000 0.000000 0.000000 0.000000 10.000000 
Rope4_Seg04 0.000000 0.000000 0.000000 0.000000 0.000000 0.000000 10.000000 
Rope4_Seg05 0.000000 0.000000 0.000000 0.000000 0.000000 0.000000 10.000000 
Rope4_Seg06 0.000000 0.000000 0.000000 0.000000 0.000000 0.000000 10.000000 
Rope4_Seg07 0.000000 0.000000 0.000000 0.000000 0.000000 0.000000 10.000000 
Rope4_Seg08 0.000000 0.000000 0.000000 0.000000 0.000000 0.000000 10.000000 
Rope4_Seg09 0.000000 0.000000 0.000000 0.000000 0.000000 0.000000 10.000000 
L_rear_hand01 0.000000 0.000000 0.000000 0.000000 0.000000 0.000000 10.000000 
L_rear_hand02 0.000000 0.000000 0.000000 0.000000 0.000000 0.000000 10.000000 
L_rear_hand03 0.000000 0.000000 0.000000 0.000000 0.000000 0.000000 10.000000 
#Beginning of Data. Separated by tabs
#Fr	Tx	Ty	Tz	Rx	Ry	Rz	SF
[MASTER]
10 0.000000 0.000000 0.000000 0.001660 0.001660 0.001660 0.000000
11 0.000000 0.000000 0.000000 0.001660 0.001660 0.001660 0.000000
[root]
10 27.203032 -163.396225 2025.615234 -110.406586 -27.782913 -56.839718 2032.376709
11 36.495735 -167.331116 2051.702148 -111.117599 -27.965467 -56.875698 2058.838135
[chest]
10 -84.512650 -34.090519 0.000000 -2.772952 3.058951 175.310669 91.129311
11 -84.512650 -34.090519 0.000000 -2.775604 1.912275 174.992737 91.129311
[L_mid_tent01]
10 27.300200 22.176603 -249.918762 -48.397755 51.857212 20.638494 252.381638
11 27.300159 22.176699 -249.918762 -57.044003 51.655617 10.666046 252.381638
[R_mid_tent01]
10 23.228794 24.509907 226.238495 140.906403 -69.747604 119.559715 228.744751
11 23.228794 24.509907 226.238495 138.598755 -71.624352 124.126816 228.744751
[spine01]
10 -0.361383 -0.195265 0.000000 0.001939 0.001323 21.402235 0.410763
11 -0.361383 -0.195265 0.000000 0.001938 0.001324 21.341833 0.410763
[Bip01_Neck]
10 165.484543 71.581718 0.000119 175.896118 1.177290 24.871185 180.302734
11 165.484543 71.581718 0.000119 175.896118 1.177290 24.871180 180.302734
[L_humerus]
10 -13.983130 -135.272980 -120.471481 166.239777 77.677048 -98.316940 181.680161
11 -13.983130 -135.272980 -120.471481 -154.985764 80.231651 -57.741695 181.680161
[R_humerus]
10 -13.983309 -135.273102 125.287651 132.926285 -41.367271 -4.807041 184.909012
11 -13.983309 -135.273102 125.287651 131.493042 -39.948940 -1.718812 184.909012
[weapon_bone]
10 235.964890 -300.705902 0.000000 0.000000 -89.951546 -128.212341 382.234833
11 235.964890 -300.705902 0.000000 0.000000 -89.951546 -128.212341 382.234833
[Bip01_Head]
10 226.364166 121.039879 5.562134 -35.254974 0.523295 -54.426823 256.753418
11 229.793686 116.538231 5.038356 -34.119709 0.530573 -54.439640 257.704651
[eye_left_bone]
10 35.135651 158.120346 -75.539337 -144.780334 -88.120903 45.615707 178.725357
11 35.299175 158.273697 -75.586990 -142.531738 -88.002373 43.356686 178.913361
[eye_right_bone]
10 37.936707 160.034866 53.472843 35.179817 -88.122047 45.653542 172.944199
11 38.321480 160.170258 53.416191 37.432579 -88.003548 43.390827 173.136749
[L_forearm]
10 322.776093 0.000000 -0.000119 0.000090 -0.002346 -94.386459 322.776093
11 322.776093 0.000000 -0.000119 0.000039 0.002347 -88.099243 322.776093
[L_front_hand]
10 241.149185 -0.042021 -3.300071 -178.863098 -1.965784 -21.503145 241.171753
11 241.149185 -0.042021 -3.300071 -168.029602 0.759477 -18.201944 241.171753
[L_weapon_bone]
10 156.183838 0.000000 0.000000 0.001075 0.002086 -35.473812 156.183838
11 156.183838 0.000000 0.000000 0.000963 0.002140 -41.546227 156.183838
[L_front_hand01_01]
10 86.095154 20.947098 -0.655860 -0.339043 -0.497476 72.161797 88.609184
11 86.095154 20.947098 -0.655860 -0.334519 -0.500620 71.583473 88.609184
[L_front_hand02_01]
10 86.935165 -11.437475 24.513514 149.636078 -58.371841 -55.819244 91.046425
11 86.935165 -11.437475 24.513514 148.836060 -58.077797 -54.877121 91.046425
[L_front_hand03_01]
10 86.637497 -14.123976 -20.424902 -149.488617 56.590305 -57.446053 90.126129
11 86.637497 -14.123976 -20.424902 -148.737564 56.292812 -56.544113 90.126129
[L_front_hand01_02]
10 71.020905 -0.000179 0.000030 0.001534 0.001777 -8.378850 71.020905
11 71.020905 -0.000179 0.000030 0.001534 0.001777 -8.378851 71.020905
[L_front_hand02_02]
10 71.020927 -0.000119 0.000060 0.001534 0.001777 -8.378850 71.020927
11 71.020927 -0.000119 0.000060 0.001534 0.001777 -8.378851 71.020927
[L_front_hand03_02]
10 71.020905 -0.000060 0.000060 0.001534 0.001777 -8.378850 71.020905
11 71.020905 -0.000060 0.000060 0.001534 0.001777 -8.378851 71.020905
[R_forearm]
10 322.776428 -0.000060 0.000030 0.159333 -0.136129 -50.681156 322.776428
11 322.776428 -0.000060 0.000030 0.158598 -0.143808 -48.382648 322.776428
[R_front_hand]
10 238.847015 -0.006795 2.210259 -2.635298 -10.645460 -26.312502 238.857239
11 238.847015 -0.006795 2.210259 -2.635298 -10.645461 -26.312506 238.857239
[R_weapon_bone]
10 155.664093 0.002503 -0.000030 0.003487 0.001180 -90.988930 155.664078
11 155.664093 0.002503 -0.000030 0.003487 0.001180 -90.988930 155.664078
[R_front_hand01_01]
10 87.624611 14.231146 22.918642 -154.633499 -59.950615 61.746044 91.683487
11 87.624611 14.231146 22.918642 -154.633499 -59.950619 61.746044 91.683487
[R_front_hand02_01]
10 89.356956 14.367283 -19.491137 154.602676 58.302864 63.744400 92.579636
11 89.356956 14.367283 -19.491137 154.602661 58.302864 63.744381 92.579636
[R_front_hand03_01]
10 87.286232 -22.307278 -0.143439 0.162155 -0.423168 -75.767921 90.091743
11 87.286232 -22.307278 -0.143439 0.162155 -0.423168 -75.767906 90.091743
[R_front_hand01_02]
10 71.020905 0.000060 0.000119 0.001796 0.001512 9.806078 71.020905
11 71.020905 0.000060 0.000119 0.001847 0.001448 13.808793 71.020905
[R_front_hand02_02]
10 71.020844 -0.000030 -0.000119 0.001796 0.001512 9.806078 71.020836
11 71.020844 -0.000030 -0.000119 0.001847 0.001448 13.808793 71.020836
[R_front_hand03_02]
10 71.020905 0.000000 0.000030 0.001796 0.001512 9.806078 71.020905
11 71.020905 0.000000 0.000030 0.001847 0.001448 13.808793 71.020905
[null_rope01_connect]
10 328.732483 0.000000 -0.000238 -146.252640 -24.858511 -117.485405 328.732483
11 328.732483 0.000000 -0.000238 -141.464035 -21.442339 -115.314430 328.732483
[Rope1_Seg01]
10 -0.000038 -0.000114 0.000100 82.708199 -38.092934 -156.083969 0.000157
11 -0.000038 -0.000114 0.000101 82.796280 -38.572189 -156.299530 0.000157
[Rope1_Seg02]
10 139.999863 -0.000179 0.000000 1.484007 -4.535154 -1.556991 139.999863
11 139.999863 -0.000179 0.000000 1.235478 -4.361584 -0.946219 139.999863
[Rope1_Seg03]
10 139.999924 0.000060 -0.000060 2.799506 -10.103544 -3.216120 139.999924
11 139.999924 0.000060 -0.000060 2.139793 -9.428581 -1.852481 139.999924
[Rope1_Seg04]
10 139.999924 -0.000060 -0.000119 1.112507 -48.701004 -6.340190 139.999924
11 139.999924 -0.000060 -0.000119 -3.923090 -45.874535 2.140709 139.999924
[Rope1_Seg05]
10 139.999832 0.000119 -0.000060 -1.136063 -27.833818 -35.532280 139.999832
11 139.999832 0.000119 -0.000060 -3.707364 -34.146736 -38.068157 139.999832
[Rope1_Seg06]
10 139.999954 0.000119 -0.000060 -0.519302 -0.106756 -11.814368 139.999954
11 139.999954 0.000119 -0.000060 -1.260687 1.144158 -15.370393 139.999954
[Rope1_Seg07]
10 139.999985 0.000060 0.000000 0.181906 -1.481180 -4.369157 139.999985
11 139.999985 0.000060 0.000000 0.134414 -1.279443 -5.234529 139.999985
[Rope1_Seg09]
10 121.602913 0.000119 -0.000089 -90.306229 -1.360543 0.846513 121.602913
11 121.602913 0.000119 -0.000089 -88.872765 -1.363006 0.846992 121.602913
[L_mid_hand01]
10 103.859421 1.038730 8.195221 104.354431 -0.290364 -0.605212 104.187431
11 103.859421 1.038730 8.195221 104.361534 -2.082833 -1.067391 104.187431
[L_mid_hand02]
10 105.572853 -4.139662 -10.864139 -135.643021 4.357895 -3.850538 106.211075
11 105.572853 -4.139662 -10.864139 -135.761230 5.651539 -5.175817 106.211075
[L_mid_hand03]
10 104.641464 17.579376 -3.913581 -18.764666 -0.116946 3.560568 106.179977
11 104.641464 17.579376 -3.913581 -18.760237 0.478582 5.313324 106.179977
[null_rope02_connect]
10 328.732849 0.000179 -0.000119 -128.588943 11.137313 42.717113 328.732849
11 328.732849 0.000179 -0.000119 -131.239777 11.262332 42.132397 328.732849
[Rope2_Seg01]
10 -0.000030 0.000102 0.000000 -56.164371 28.871391 31.016880 0.000106
11 -0.000025 0.000102 0.000000 -58.675274 31.392639 27.931246 0.000105
[Rope2_Seg02]
10 139.999741 -0.000060 -0.000119 -3.365214 -12.208473 13.938106 139.999756
11 139.999741 -0.000060 -0.000119 -3.111282 -14.124495 12.494110 139.999756
[Rope2_Seg03]
10 140.000107 0.000030 0.000000 -1.029547 -13.733263 9.496554 140.000107
11 140.000107 0.000030 0.000000 -1.018475 -15.528191 7.508286 140.000107
[Rope2_Seg04]
10 139.999802 0.000000 -0.000060 2.062316 -8.834125 14.818212 139.999802
11 139.999802 0.000000 -0.000060 1.453218 -9.782961 13.881281 139.999802
[Rope2_Seg05]
10 139.999985 -0.000060 0.000119 9.312796 -2.197819 19.402412 139.999985
11 139.999985 -0.000060 0.000119 8.726002 -2.508519 18.889936 139.999985
[Rope2_Seg06]
10 139.999893 -0.000030 -0.000119 6.123511 -0.183214 9.566789 139.999893
11 139.999893 -0.000030 -0.000119 5.620350 -0.559952 9.094938 139.999893
[Rope2_Seg07]
10 139.999893 0.000060 -0.000060 3.935019 0.339990 5.434109 139.999893
11 139.999893 0.000060 -0.000060 3.637711 0.035177 5.180334 139.999893
[Rope2_Seg09]
10 121.338966 0.000089 -0.000060 33.793236 -1.359788 -0.847141 121.338966
11 121.338966 0.000089 -0.000060 33.793236 -1.359788 -0.847141 121.338966
[R_mid_hand01]
10 104.680779 11.144459 -10.335981 -43.666332 20.819098 23.152678 105.778534
11 104.680779 11.144459 -10.335981 -35.168285 34.192844 41.303879 105.778534
[R_mid_hand02]
10 104.070427 2.443552 8.231699 73.950394 -26.224144 7.780693 104.424065
11 104.070427 2.443552 8.231699 69.057709 -46.053474 15.939553 104.424065
[R_mid_hand03]
10 106.028137 -11.221827 -5.996406 -166.788940 8.765354 -30.281555 106.788818
11 106.028137 -11.221827 -5.996406 -170.748062 12.879352 -51.115482 106.788818
[spine02]
10 129.756927 0.001550 0.000119 0.460292 -4.033748 -14.363917 129.756927
11 129.756927 0.001550 0.000119 0.459413 -4.033847 -14.338943 129.756927
[spine03]
10 78.614853 0.080096 -4.899056 2.146825 3.698683 20.294043 78.767395
11 78.614822 0.080146 -4.899055 2.163150 3.687714 20.525650 78.767365
[pelvis]
10 169.435242 0.051022 0.000000 -0.062031 -0.179692 15.085142 169.435257
11 169.435242 0.051022 0.000000 -0.062094 -0.179671 15.125051 169.435257
[null_rope03_connect]
10 -1.257226 -2.466202 137.391083 126.812286 -61.128807 -46.454823 137.418976
11 -1.257226 -2.466202 137.391083 128.336517 -61.153458 -47.848499 137.418976
[null_rope04_connect]
10 -1.259640 -2.480268 -137.844437 126.812286 -61.128807 -46.454823 137.872513
11 -1.259640 -2.480268 -137.844437 128.336517 -61.153458 -47.848499 137.872513
[Rope3_Seg01]
10 0.000000 0.000000 0.000000 -128.580551 38.510284 -68.641167 0.000000
11 0.000000 0.000000 0.000000 -127.104523 38.048744 -66.243805 0.000000
[Rope3_Seg02]
10 139.999924 -0.000119 0.000060 -0.022436 -11.387214 0.490986 139.999924
11 139.999924 -0.000119 0.000060 0.282580 -11.523426 0.713814 139.999924
[Rope3_Seg03]
10 139.999924 -0.000119 0.000119 1.923464 -17.889938 0.705376 139.999924
11 139.999924 -0.000119 0.000119 2.324369 -17.781677 1.090050 139.999924
[Rope3_Seg04]
10 139.999924 0.000119 0.000000 4.240313 -16.485394 -1.688020 139.999924
11 139.999924 0.000119 0.000000 4.342598 -15.857208 -1.472878 139.999924
[Rope3_Seg05]
10 139.999924 -0.000238 0.000060 10.847910 -25.823465 6.837961 139.999924
11 139.999924 -0.000238 0.000060 11.109057 -26.393881 8.673497 139.999924
[Rope3_Seg06]
10 139.999893 -0.000119 -0.000060 11.069153 -23.068893 16.493464 139.999893
11 139.999893 -0.000119 -0.000060 9.910944 -21.586590 17.574274 139.999893
[Rope3_Seg07]
10 139.999771 0.000060 -0.000119 4.589838 -7.747519 8.445416 139.999771
11 139.999771 0.000060 -0.000119 3.868182 -6.887135 8.054970 139.999771
[Rope3_Seg08]
10 139.999985 -0.000060 0.000000 2.168794 -3.059011 3.749715 139.999985
11 139.999985 -0.000060 0.000000 1.902521 -2.810402 3.626922 139.999985
[Rope3_Seg09]
10 90.185997 -0.000179 -0.000060 73.439102 -1.360046 -0.845829 90.185997
11 90.185997 -0.000179 -0.000060 71.361420 -1.361867 -0.848018 90.185997
[R_rear_hand01]
10 103.366196 -6.073594 -10.757982 -157.171555 9.603103 -11.017471 104.101845
11 103.366196 -6.073594 -10.757982 -158.916763 13.108895 -19.868313 104.101845
[R_rear_hand02]
10 100.509819 12.039542 -7.992327 -38.131191 7.480882 12.434045 101.543350
11 100.509819 12.039542 -7.992327 -36.772411 13.179006 19.981731 101.543350
[R_rear_hand03]
10 101.539970 5.215704 5.435467 84.201607 -11.195496 4.994810 101.819031
11 101.539970 5.215704 5.435467 83.929695 -20.503988 5.995982 101.819031
[Rope4_Seg01]
10 0.000000 0.000000 0.000000 39.465595 -37.079838 -84.864975 0.000000
11 0.000000 0.000000 0.000000 39.232689 -38.830635 -84.645699 0.000000
[Rope4_Seg02]
10 139.999985 0.000060 0.000119 0.172809 -3.655379 -3.190908 139.999985
11 139.999985 0.000060 0.000119 0.152894 -3.081852 -3.045511 139.999985
[Rope4_Seg03]
10 139.999924 0.000000 -0.000238 0.190736 -6.553616 -5.723344 139.999924
11 139.999924 0.000000 -0.000238 0.125462 -5.460604 -5.398285 139.999924
[Rope4_Seg04]
10 139.999985 0.000000 0.000119 -0.130495 -15.260428 -14.480133 139.999985
11 139.999985 0.000000 0.000119 -0.327294 -12.682981 -13.208090 139.999985
[Rope4_Seg05]
10 139.999802 -0.000060 -0.000119 -19.958128 -26.667442 -33.995831 139.999802
11 139.999802 -0.000060 -0.000119 -20.404625 -26.106268 -38.282166 139.999802
[Rope4_Seg06]
10 139.999924 0.000000 0.000060 -84.347282 -13.576987 -25.677109 139.999924
11 139.999924 0.000000 0.000060 -72.657394 -10.933882 -28.948992 139.999924
[Rope4_Seg07]
10 139.999802 0.000000 0.000000 -56.986015 24.151344 -28.022968 139.999802
11 139.999802 0.000000 0.000000 -59.927692 21.624350 -33.894402 139.999802
[Rope4_Seg08]
10 139.999924 0.000000 0.000119 -4.218107 17.873310 3.752786 139.999924
11 139.999924 0.000000 0.000119 -5.726323 20.823105 2.015079 139.999924
[Rope4_Seg09]
10 90.185791 0.000060 0.000060 -149.578079 2.227937 0.848492 90.185791
11 90.185791 0.000060 0.000060 -151.613449 2.226944 0.850733 90.185791
[L_rear_hand01]
10 101.696655 -8.392275 -7.654577 -35.896191 -15.688193 156.491638 102.329041
11 101.696655 -8.392275 -7.654577 -28.485670 -27.460903 136.618759 102.329041
[L_rear_hand02]
10 102.726799 -1.568258 5.773216 83.734360 24.715420 173.509384 102.900848
11 102.726799 -1.568258 5.773216 81.736328 46.408432 170.132355 102.900848
[L_rear_hand03]
10 104.552910 9.721220 -10.420293 -159.895081 -14.596680 -156.045837 105.519653
11 104.552910 9.721220 -10.420293 -166.697159 -20.962837 -134.055527 105.519653
